<svg width="402" height="401" viewBox="0 0 402 401" fill="none" xmlns="http://www.w3.org/2000/svg">
<path d="M200.998 0.000128993C170.094 -0.0349164 139.603 7.07146 111.915 20.762V58.8502H166.904V113.356H113.438V200.55C113.432 217.798 118.552 234.661 128.151 249.007C137.75 263.353 151.398 274.538 167.369 281.149C183.34 287.759 200.917 289.498 217.878 286.145C234.84 282.793 250.424 274.499 262.661 262.313C274.898 250.127 283.239 234.596 286.629 217.683C290.019 200.769 288.305 183.233 281.706 167.29C275.106 151.348 263.916 137.715 249.551 128.115C235.185 118.515 218.289 113.379 200.998 113.356H193.778V58.7016H200.998C229.077 58.7244 256.519 67.0495 279.856 82.6248C303.193 98.2001 321.378 120.327 332.113 146.208C342.848 172.089 345.65 200.564 340.167 228.034C334.683 255.504 321.16 280.736 301.305 300.541C281.45 320.347 256.155 333.837 228.617 339.306C201.079 344.776 172.533 341.981 146.587 331.273C120.641 320.565 98.4593 302.425 82.8452 279.146C67.2311 255.866 58.8853 228.493 58.8623 200.484V73.3026V58.7346C25.9827 91.5368 5.52224 134.696 0.967012 180.859C-3.58822 227.023 8.04366 273.333 33.8807 311.901C59.7178 350.468 98.1615 378.906 142.662 392.369C187.162 405.832 234.965 403.488 277.926 385.735C320.888 367.982 356.349 335.919 378.269 295.009C400.188 254.1 407.21 206.874 398.137 161.38C389.063 115.885 364.457 74.9357 328.51 45.5092C292.563 16.0827 247.5 -0.000399857 200.998 0.000128993Z" fill="black"/>
</svg>
